# File created by Blade
# Date/Time:  Wed Sep 24 20:26:02 2014
# Frame Rate: 120.000 fps
#------------------------------------------------------
:FULLY-SPECIFIED
:DEGREES
1150
root -5.778485 32.498934 -3.012254 356.835328 -62.446571 -351.492236
Spine -8.096018 13.370749 -0.623663
Head -1.981544 47.379365 7.560494
LeftShoulder -16.319092 22.661030 4.309044
LeftArm 17.157211 20.730243 -76.921088
LeftForeArm 1.890235 0.000000 19.069372
LeftHand -28.879153 -0.000000 9.535077
LeftHandThumb1 -26.253704 0.000000 33.147579
RightShoulder -19.506416 10.007990 -25.427172
RightArm -17.688727 -30.785400 97.260195
RightForeArm -24.859698 -0.000000 22.941437
RightHand -6.279838 0.000000 13.270007
RightHandThumb1 -24.326973 -0.000000 -32.862282
LeftUpLeg -5.189144 -3.663256 -2.615302
LeftLeg -1.761693 -0.000000 0.000000
LeftFoot -3.451199 -1.722754 -21.860950
LeftToeBase 6.425243 -0.000000 -0.000000
RightUpLeg 0.908783 -13.769143 -5.400605
RightLeg 15.880068 -0.000000 -0.000000
RightFoot -21.344764 -18.764012 4.739280
RightToeBase -0.404775 -0.000000 0.000000
1151
root -5.784311 32.495005 -2.932897 356.632194 -62.461826 -351.303390
Spine -7.981836 13.361662 -0.850732
Head -2.119423 47.418136 7.519462
LeftShoulder -16.265217 22.541630 4.420435
LeftArm 17.273916 20.678667 -76.843471
LeftForeArm 2.013334 -0.000000 19.279867
LeftHand -28.834648 -0.000000 9.747687
LeftHandThumb1 -26.253704 0.000000 33.147579
RightShoulder -19.473747 10.039240 -25.396962
RightArm -17.686710 -31.012615 97.501465
RightForeArm -24.852863 -0.000000 22.972855
RightHand -6.298501 -0.000000 13.311958
RightHandThumb1 -24.326973 -0.000000 -32.862282
LeftUpLeg -5.075688 -3.820775 -2.811942
LeftLeg -1.761120 -0.000000 0.000000
LeftFoot -3.582346 -1.597599 -21.710332
LeftToeBase 6.381410 -0.000000 -0.000000
RightUpLeg 0.582912 -13.603880 -5.626887
RightLeg 16.812796 -0.000000 -0.000000
RightFoot -21.502909 -18.761842 4.961842
RightToeBase -0.579178 -0.000000 0.000000
1152
root -5.786044 32.490625 -2.856234 356.455390 -62.439151 -351.103463
Spine -7.904746 13.332937 -1.087589
Head -2.241301 47.406531 7.475738
LeftShoulder -16.232328 22.460324 4.517231
LeftArm 17.502770 20.632988 -76.731344
LeftForeArm 2.177687 0.000000 19.438199
LeftHand -28.870070 -0.000000 9.929899
LeftHandThumb1 -26.253704 0.000000 33.147579
RightShoulder -19.445936 10.030939 -25.378138
RightArm -17.679770 -31.206151 97.739448
RightForeArm -24.796618 -0.000000 23.015910
RightHand -6.225090 -0.000000 13.314578
RightHandThumb1 -24.326973 -0.000000 -32.862282
LeftUpLeg -4.976840 -4.131311 -3.001380
LeftLeg -1.828067 -0.000000 0.000000
LeftFoot -3.700069 -1.351564 -21.590201
LeftToeBase 6.297534 -0.000000 -0.000000
RightUpLeg 0.190875 -13.456435 -5.847385
RightLeg 17.795769 -0.000000 -0.000000
RightFoot -21.670504 -18.771744 5.211457
RightToeBase -0.720797 -0.000000 0.000000
1153
root -5.788339 32.486616 -2.781552 356.319330 -62.462875 -350.974182
Spine -7.804002 13.371642 -1.264914
Head -2.317381 47.417694 7.428887
LeftShoulder -16.187027 22.512182 4.558070
LeftArm 17.883496 20.626949 -76.540138
LeftForeArm 2.185290 -0.000000 19.649123
LeftHand -28.757119 -0.000000 10.146613
LeftHandThumb1 -26.253704 0.000000 33.147579
RightShoulder -19.405226 10.060589 -25.354313
RightArm -17.715888 -31.311574 97.927898
RightForeArm -24.887302 -0.000000 23.113312
RightHand -6.221365 -0.000000 13.425805
RightHandThumb1 -24.326973 -0.000000 -32.862282
LeftUpLeg -4.830878 -4.408332 -3.156393
LeftLeg -1.948157 -0.000000 0.000000
LeftFoot -3.823286 -1.065598 -21.467507
LeftToeBase 6.320771 -0.000000 -0.000000
RightUpLeg -0.159089 -13.226732 -6.030916
RightLeg 18.719322 -0.000000 -0.000000
RightFoot -21.800716 -18.766988 5.513301
RightToeBase -0.901756 -0.000000 0.000000
1154
root -5.792759 32.484025 -2.709197 356.234786 -62.465374 -350.888163
Spine -7.730305 13.334901 -1.414703
Head -2.303346 47.483232 7.460281
LeftShoulder -16.110929 22.367350 4.671471
LeftArm 17.948529 20.527652 -76.517915
LeftForeArm 2.380593 -0.000000 19.884045
LeftHand -28.746312 -0.000000 10.290313
LeftHandThumb1 -26.253704 0.000000 33.147579
RightShoulder -19.335147 10.083635 -25.327355
RightArm -17.747631 -31.455356 98.126534
RightForeArm -24.811115 -0.000000 23.180728
RightHand -6.158118 -0.000000 13.205442
RightHandThumb1 -24.326973 -0.000000 -32.862282
LeftUpLeg -4.729250 -4.553557 -3.307446
LeftLeg -1.994325 -0.000000 0.000000
LeftFoot -3.928449 -0.916504 -21.299682
LeftToeBase 6.339037 -0.000000 -0.000000
RightUpLeg -0.484203 -12.967057 -6.175570
RightLeg 19.549342 -0.000000 -0.000000
RightFoot -21.864789 -18.863409 5.785579
RightToeBase -1.162980 -0.000000 0.000000
1155
root -5.791387 32.481703 -2.637936 356.202022 -62.480162 -350.827662
Spine -7.675866 13.327340 -1.535560
Head -2.271541 47.522700 7.464343
LeftShoulder -16.067778 22.224789 4.735059
LeftArm 18.070989 20.505379 -76.432928
LeftForeArm 2.457783 0.000000 20.166209
LeftHand -28.949590 -0.000000 10.289035
LeftHandThumb1 -26.253704 0.000000 33.147579
RightShoulder -19.306167 10.138714 -25.337100
RightArm -17.792968 -31.547321 98.309906
RightForeArm -24.779233 -0.000000 23.230686
RightHand -6.120438 0.000000 13.184702
RightHandThumb1 -24.326973 -0.000000 -32.862282
LeftUpLeg -4.632413 -4.769596 -3.436370
LeftLeg -2.119515 -0.000000 0.000000
LeftFoot -4.014790 -0.677405 -21.190076
LeftToeBase 6.345611 -0.000000 -0.000000
RightUpLeg -0.882674 -12.817397 -6.320963
RightLeg 20.460990 -0.000000 -0.000000
RightFoot -21.937399 -18.801185 6.086601
RightToeBase -1.305856 -0.000000 0.000000
1156
root -5.792542 32.479770 -2.563968 356.148049 -62.539275 -350.759972
Spine -7.635803 13.376555 -1.650489
Head -2.203233 47.524828 7.496052
LeftShoulder -15.975482 22.146121 4.813519
LeftArm 18.200459 20.444223 -76.360348
LeftForeArm 2.521108 -0.000000 20.422045
LeftHand -28.830798 0.000000 10.263793
LeftHandThumb1 -26.253704 0.000000 33.147579
RightShoulder -19.307446 10.121876 -25.317859
RightArm -17.768272 -31.681892 98.421389
RightForeArm -24.745317 -0.000000 23.297419
RightHand -6.132929 -0.000000 13.186774
RightHandThumb1 -24.326973 -0.000000 -32.862282
LeftUpLeg -4.503207 -4.916694 -3.570806
LeftLeg -2.261495 -0.000000 0.000000
LeftFoot -4.100868 -0.464609 -21.079580
LeftToeBase 6.390022 -0.000000 -0.000000
RightUpLeg -1.284010 -12.572765 -6.462718
RightLeg 21.396034 -0.000000 -0.000000
RightFoot -21.957356 -18.782657 6.373237
RightToeBase -1.558409 -0.000000 0.000000
1157
root -5.790134 32.479658 -2.497225 356.188558 -62.586958 -350.767302
Spine -7.610478 13.360352 -1.723000
Head -2.159052 47.586026 7.509884
LeftShoulder -15.962035 22.065481 4.869334
LeftArm 18.389488 20.469009 -76.289556
LeftForeArm 2.654728 -0.000000 20.622421
LeftHand -28.875686 0.000000 10.641854
LeftHandThumb1 -26.253704 0.000000 33.147579
RightShoulder -19.261073 10.164420 -25.294105
RightArm -17.764428 -31.795062 98.527220
RightForeArm -24.752649 -0.000000 23.343572
RightHand -6.139568 -0.000000 13.171921
RightHandThumb1 -24.326973 -0.000000 -32.862282
LeftUpLeg -4.465543 -4.855588 -3.682467
LeftLeg -2.291379 -0.000000 0.000000
LeftFoot -4.156720 -0.467764 -20.952803
LeftToeBase 6.439411 -0.000000 -0.000000
RightUpLeg -1.703228 -12.341505 -6.540116
RightLeg 22.265320 -0.000000 -0.000000
RightFoot -21.936854 -18.833715 6.585057
RightToeBase -1.710188 -0.000000 0.000000
